<?xml version="1.0" standalone="no"?>
<!DOCTYPE svg PUBLIC "-//W3C//DTD SVG 20010904//EN"
 "http://www.w3.org/TR/2001/REC-SVG-20010904/DTD/svg10.dtd">
<svg version="1.0" xmlns="http://www.w3.org/2000/svg"
 width="289.000000pt" height="189.000000pt" viewBox="0 0 289.000000 189.000000"
 preserveAspectRatio="xMidYMid meet">

<g transform="translate(0.000000,189.000000) scale(0.100000,-0.100000)"
fill="#000000" stroke="none">
<path d="M0 945 l0 -945 1445 0 1445 0 0 945 0 945 -1445 0 -1445 0 0 -945z
m2020 865 c103 -13 146 -26 154 -46 3 -9 6 -42 6 -74 0 -70 -17 -94 -60 -85
-62 14 -234 21 -288 13 -104 -16 -171 -72 -215 -180 -21 -51 -22 -69 -25 -456
-3 -439 0 -478 54 -570 30 -51 91 -98 148 -113 48 -13 187 -13 282 0 98 14
106 8 102 -87 -3 -71 -5 -78 -29 -89 -14 -7 -80 -18 -147 -24 -214 -21 -354
15 -465 120 -66 62 -101 126 -127 227 -18 71 -20 112 -20 509 0 394 2 438 19
508 25 97 52 148 109 210 117 125 267 165 502 137z m-1255 -35 c170 -45 281
-157 332 -336 16 -57 18 -108 18 -484 0 -376 -2 -427 -18 -484 -51 -179 -162
-291 -332 -335 -75 -20 -648 -24 -671 -5 -12 10 -14 135 -14 823 0 618 3 815
12 824 19 19 596 17 673 -3z m1506 -466 c74 -16 116 -58 129 -128 6 -29 10
-159 10 -287 l0 -234 -95 0 -95 0 0 27 0 26 -22 -20 c-52 -47 -92 -53 -159
-26 -55 21 -69 57 -69 170 0 66 4 95 16 112 9 13 63 45 119 71 95 45 103 50
108 81 4 19 3 50 -1 69 -6 28 -12 35 -32 35 -24 0 -25 -3 -28 -72 l-3 -73 -91
0 -90 0 4 74 c4 84 21 117 77 150 61 35 134 44 222 25z m529 -104 l0 -115 -25
0 c-36 0 -71 -19 -84 -47 -7 -15 -11 -93 -11 -203 l0 -180 -95 0 -95 0 0 325
0 325 96 0 97 0 -6 -42 -6 -42 32 37 c28 32 63 54 90 56 4 1 7 -51 7 -114z
m-879 -420 c0 -19 1 -48 1 -65 0 -63 3 -60 -72 -60 l-70 0 0 80 0 80 70 0 70
0 1 -35z"/>
<path d="M280 955 l0 -646 208 3 c185 3 212 5 252 24 60 28 108 77 139 144
l26 55 0 420 0 420 -26 55 c-31 67 -79 116 -139 144 -40 19 -67 21 -252 24
l-208 3 0 -646z"/>
<path d="M2180 945 c-25 -26 -38 -110 -26 -160 7 -26 39 -35 52 -14 11 18 16
186 6 193 -5 3 -19 -6 -32 -19z"/>
</g>
</svg>
